<svg id="a" xmlns="http://www.w3.org/2000/svg" viewBox="0 0 139 32"><path d="M19.245117,14.605957l-5.921875,14.699707h2.30957l1.615295-4.242188h6.493042l1.615295,4.242188h2.435547l-5.942383-14.699707h-2.604492ZM17.95166,23.21582l2.070801-5.438477.125977-.336914c.041992-.111328.083984-.216797.125977-.314453.041992-.112305.118164-.335938.230469-.671875l.125977.37793c.041992.125977.09082.251953.147461.37793.027344.097656.05957.192383.094727.283203.03418.091797.066406.185547.09375.28418l2.070801,5.438477h-5.085938Z" style="fill:#f9f9f9; stroke-width:0px;"/><path d="M32.558594,19.373047c-.532227.37793-.9375.881836-1.217773,1.511719l.021484-.566406v-1.176758h-2.058594v10.164062h2.058594v-5.270508c0-.728516.118164-1.333984.356445-1.816406.238281-.483398.574219-.84082,1.007812-1.071289.43457-.231445.966797-.34668,1.59668-.34668.209961,0,.412109.021484.608398.063477v-2.016602c-.125977-.027344-.287109-.041992-.482422-.041992-.728516,0-1.358398.189453-1.890625.567383Z" style="fill:#f9f9f9; stroke-width:0px;"/><polygon points="36.695312 19.141602 36.695312 20.822266 36.695312 27.625977 36.695312 29.305664 38.753906 29.305664 38.753906 27.625977 38.753906 19.141602 37.724609 19.141602 36.695312 19.141602" style="fill:#f9f9f9; stroke-width:0px;"/><rect x="36.569336" y="15.005371" width="2.289062" height="2.351074" style="fill:#f9f9f9; stroke-width:0px;"/><path d="M48.561523,19.477539c-.714844-.447266-1.575195-.671875-2.583008-.671875-.938477,0-1.782227.231445-2.53125.693359s-1.333008,1.098633-1.75293,1.911133c-.419922.811523-.629883,1.736328-.629883,2.771484,0,1.162109.206055,2.149414.619141,2.960938.413086.8125.994141,1.431641,1.743164,1.858398s1.633789.640625,2.65625.640625c.895508,0,1.679688-.157227,2.352539-.472656.671875-.314453,1.193359-.741211,1.564453-1.280273.370117-.539062.59082-1.130859.661133-1.774414h-2.057617c-.112305.658203-.396484,1.140625-.850586,1.448242-.455078.308594-1.011719.462891-1.669922.462891-.55957,0-1.060547-.136719-1.500977-.410156-.441406-.272461-.791992-.665039-1.050781-1.175781s-.387695-1.102539-.387695-1.774414h7.601562v-.441406c0-1.091797-.185547-2.043945-.556641-2.855469-.371094-.8125-.913086-1.442383-1.626953-1.890625ZM43.164062,23.195312c.070312-.8125.360352-1.480469.871094-2.005859.511719-.525391,1.15918-.787109,1.943359-.787109.797852,0,1.427734.251953,1.889648.755859s.700195,1.182617.713867,2.037109h-5.417969Z" style="fill:#f9f9f9; stroke-width:0px;"/><polygon points="53.075195 14.605957 53.075195 16.286133 53.075195 27.625977 53.075195 29.305664 55.133789 29.305664 55.133789 27.625977 55.133789 14.605957 54.104492 14.605957 53.075195 14.605957" style="fill:#f9f9f9; stroke-width:0px;"/><path d="M69.959961,21.052734l-2.561523-.566406c-.868164-.182617-1.508789-.448242-1.921875-.798828-.413086-.349609-.619141-.818359-.619141-1.40625,0-.43457.135742-.81543.40918-1.144531.273438-.328613.647461-.581055,1.123047-.755859.476562-.175293,1.015625-.262695,1.617188-.262695.686523,0,1.28125.112305,1.785156.335938.503906.224121.895508.542969,1.175781.955078.280273.413086.441406.885742.483398,1.417969h2.24707c-.056641-.910156-.31543-1.711914-.777344-2.404297-.461914-.693359-1.105469-1.228516-1.931641-1.606934-.826172-.37793-1.791992-.566895-2.898438-.566895-1.049805,0-1.991211.182129-2.824219.545898-.833008.364258-1.487305.864746-1.963867,1.501953-.475586.637207-.713867,1.361328-.713867,2.172852,0,1.078125.37793,1.959961,1.133789,2.646484.756836.685547,1.75,1.162109,2.982422,1.427734l2.289062.503906c.895508.196289,1.578125.472656,2.047852.829102.46875.357422.703125.850586.703125,1.480469,0,.756836-.308594,1.351562-.923828,1.785156-.616211.43457-1.469727.651367-2.5625.651367-.727539,0-1.378906-.132812-1.953125-.399414-.574219-.265625-1.036133-.647461-1.385742-1.144531-.349609-.496094-.545898-1.087891-.587891-1.774414h-2.24707c.041992,1.050781.311523,1.963867.808594,2.741211.49707.776367,1.204102,1.375,2.121094,1.794922s1.984375.629883,3.202148.629883c1.19043,0,2.21875-.199219,3.086914-.598633.868164-.398438,1.537109-.9375,2.005859-1.616211.46875-.679688.703125-1.445312.703125-2.299805,0-1.091797-.367188-1.977539-1.102539-2.65625-.734375-.678711-1.71875-1.151367-2.950195-1.417969Z" style="fill:#f9f9f9; stroke-width:0px;"/><path d="M82.517578,19.289062c-.616211-.322266-1.364258-.483398-2.246094-.483398-.84082,0-1.572266.158203-2.195312.472656-.623047.31543-1.109375.742188-1.458984,1.28125-.350586.539062-.539062,1.137695-.567383,1.794922h2.079102c.041992-.601562.258789-1.077148.651367-1.427734.391602-.349609.9375-.524414,1.637695-.524414.574219,0,1.036133.146484,1.385742.44043s.525391.686523.525391,1.175781c0,.293945-.081055.518555-.241211.671875-.161133.154297-.438477.259766-.830078.31543l-1.931641.273438c-1.078125.167969-1.942383.506836-2.59375,1.018555-.651367.510742-.976562,1.249023-.976562,2.214844,0,.629883.157227,1.183594.472656,1.65918.31543.476562.742188.839844,1.28125,1.091797.538086.251953,1.123047.37793,1.75293.37793.770508,0,1.428711-.150391,1.974609-.451172s.951172-.724609,1.217773-1.270508c-.014648.154297-.024414.307617-.03125.461914-.007812.154297-.010742.301758-.010742.441406v.482422h1.953125v-6.425781c0-.853516-.154297-1.585938-.461914-2.194336-.308594-.609375-.770508-1.074219-1.386719-1.396484ZM82.349609,25.442383c0,.503906-.115234.955078-.345703,1.354492-.231445.398438-.553711.709961-.966797.933594-.413086.224609-.871094.336914-1.375.336914s-.927734-.143555-1.270508-.430664c-.34375-.287109-.514648-.668945-.514648-1.144531,0-.490234.185547-.87207.556641-1.144531.371094-.273438.87793-.472656,1.522461-.598633l1.259766-.231445c.322266-.069336.574219-.139648.755859-.209961.181641-.069336.308594-.146484.37793-.230469v1.365234Z" style="fill:#f9f9f9; stroke-width:0px;"/><polygon points="87.178711 14.605957 87.178711 16.286133 87.178711 27.625977 87.178711 29.305664 89.237305 29.305664 89.237305 27.625977 89.237305 14.605957 88.208008 14.605957 87.178711 14.605957" style="fill:#f9f9f9; stroke-width:0px;"/><path d="M99.443359,19.666992v.419922c0,.070312.003906.143555.010742.220703s.010742.157227.010742.241211c-.280273-.490234-.697266-.90332-1.25-1.239258s-1.207031-.503906-1.962891-.503906c-.911133,0-1.722656.227539-2.436523.682617s-1.274414,1.091797-1.679688,1.911133c-.40625.819336-.609375,1.767578-.609375,2.845703,0,1.133789.203125,2.107422.609375,2.918945.405273.811523.958984,1.427734,1.65918,1.847656.699219.419922,1.503906.629883,2.415039.629883.755859,0,1.419922-.167969,1.994141-.503906s.994141-.749023,1.260742-1.239258c-.014648.140625-.021484.28418-.021484.430664v.976562h2.058594v-14.699707h-2.058594v5.061035ZM99.191406,26.21875c-.251953.574219-.601562,1.018555-1.049805,1.333984-.448242.314453-.958984.472656-1.533203.472656s-1.084961-.158203-1.533203-.472656c-.448242-.31543-.797852-.759766-1.049805-1.333984s-.37793-1.239258-.37793-1.995117c0-.741211.125977-1.399414.37793-1.973633s.605469-1.018555,1.060547-1.333984c.455078-.314453.962891-.47168,1.522461-.47168.881836,0,1.595703.342773,2.142578,1.02832.545898.686523.818359,1.603516.818359,2.750977,0,.755859-.125977,1.420898-.37793,1.995117Z" style="fill:#f9f9f9; stroke-width:0px;"/><path d="M110.615234,19.289062c-.616211-.322266-1.364258-.483398-2.246094-.483398-.84082,0-1.572266.158203-2.195312.472656-.623047.31543-1.109375.742188-1.458984,1.28125-.350586.539062-.539062,1.137695-.567383,1.794922h2.079102c.041992-.601562.258789-1.077148.651367-1.427734.391602-.349609.9375-.524414,1.637695-.524414.574219,0,1.036133.146484,1.385742.44043s.525391.686523.525391,1.175781c0,.293945-.081055.518555-.241211.671875-.161133.154297-.438477.259766-.830078.31543l-1.931641.273438c-1.078125.167969-1.942383.506836-2.59375,1.018555-.651367.510742-.976562,1.249023-.976562,2.214844,0,.629883.157227,1.183594.472656,1.65918.31543.476562.742188.839844,1.28125,1.091797.538086.251953,1.123047.37793,1.75293.37793.770508,0,1.428711-.150391,1.974609-.451172s.951172-.724609,1.217773-1.270508c-.014648.154297-.024414.307617-.03125.461914-.007812.154297-.010742.301758-.010742.441406v.482422h1.953125v-6.425781c0-.853516-.154297-1.585938-.461914-2.194336-.308594-.609375-.770508-1.074219-1.386719-1.396484ZM110.447266,25.442383c0,.503906-.115234.955078-.345703,1.354492-.231445.398438-.553711.709961-.966797.933594-.413086.224609-.871094.336914-1.375.336914s-.927734-.143555-1.270508-.430664c-.34375-.287109-.514648-.668945-.514648-1.144531,0-.490234.185547-.87207.556641-1.144531.371094-.273438.87793-.472656,1.522461-.598633l1.259766-.231445c.322266-.069336.574219-.139648.755859-.209961.181641-.069336.308594-.146484.37793-.230469v1.365234Z" style="fill:#f9f9f9; stroke-width:0px;"/><path d="M122.40625,19.289062c-.553711-.322266-1.214844-.483398-1.984375-.483398-.686523,0-1.305664.165039-1.858398.494141-.553711.329102-.969727.745117-1.25,1.249023v-.167969c0-.055664.006836-.112305.021484-.167969v-1.071289h-2.058594v10.164062h2.058594v-6.068359c0-.504883.104492-.969727.314453-1.396484.209961-.427734.514648-.766602.914062-1.018555.398438-.251953.857422-.37793,1.375-.37793.727539,0,1.263672.227539,1.606445.681641.342773.455078.514648,1.137695.514648,2.047852v6.131836h2.057617v-6.404297c0-.854492-.146484-1.588867-.44043-2.205078s-.717773-1.084961-1.270508-1.407227Z" style="fill:#f9f9f9; stroke-width:0px;"/><path d="M134.513672,20.685547c-.308594-.609375-.770508-1.074219-1.386719-1.396484s-1.364258-.483398-2.246094-.483398c-.84082,0-1.572266.158203-2.195312.472656-.623047.31543-1.109375.742188-1.458984,1.28125-.350586.539062-.539062,1.137695-.567383,1.794922h2.079102c.041992-.601562.258789-1.077148.651367-1.427734.391602-.349609.9375-.524414,1.637695-.524414.574219,0,1.036133.146484,1.385742.44043s.525391.686523.525391,1.175781c0,.293945-.081055.518555-.241211.671875-.161133.154297-.438477.259766-.830078.31543l-1.931641.273438c-1.078125.167969-1.942383.506836-2.59375,1.018555-.651367.510742-.976562,1.249023-.976562,2.214844,0,.629883.157227,1.183594.472656,1.65918.31543.476562.742188.839844,1.28125,1.091797.538086.251953,1.123047.37793,1.75293.37793.770508,0,1.428711-.150391,1.974609-.451172s.951172-.724609,1.217773-1.270508c-.014648.154297-.024414.307617-.03125.461914-.007812.154297-.010742.301758-.010742.441406v.482422h1.953125v-6.425781c0-.853516-.154297-1.585938-.461914-2.194336ZM132.958984,25.442383c0,.503906-.115234.955078-.345703,1.354492-.231445.398438-.553711.709961-.966797.933594-.413086.224609-.871094.336914-1.375.336914s-.927734-.143555-1.270508-.430664c-.34375-.287109-.514648-.668945-.514648-1.144531,0-.490234.185547-.87207.556641-1.144531.371094-.273438.87793-.472656,1.522461-.598633l1.259766-.231445c.322266-.069336.574219-.139648.755859-.209961.181641-.069336.308594-.146484.37793-.230469v1.365234Z" style="fill:#f9f9f9; stroke-width:0px;"/><path d="M15.707113,9.510672c-3.955304,0-7.161713-3.206409-7.161713-7.161713,0,3.955304-3.206409,7.161713-7.161713,7.161713,3.955304,0,7.161713,3.206409,7.161713,7.161713,0-3.955304,3.206409-7.161713,7.161713-7.161713Z" style="fill:#fc4d00; stroke-width:0px;"/></svg>
