<?xml version="1.0" encoding="UTF-8"?><svg id="Layer_1" xmlns="http://www.w3.org/2000/svg" viewBox="0 0 512 193.8943613"><path d="m0,193.8943613v-41.4675067h13.8225022v-41.5621814h13.8225022v-41.5628126h13.8225022V27.7396792h13.9171769V0h41.5621814v27.7396792h13.8225022v41.5621814h13.8225022v41.5628126h13.8225022v41.5621814h13.9171769v41.4675067h-27.7396792v-41.4675067H27.6450045v41.4675067H0Zm110.7693673-69.2071859v-13.8225022h-13.8225022v-41.5628126h-13.9171769v-27.7396792h-13.8225022v27.7396792h-13.8225022v41.5628126h-13.9171769v13.8225022h69.3018606Z"/><path d="m179.9765532,193.8943613V55.4793583h27.6450045v13.8225022h13.8225022v-13.8225022h34.6509303v27.6450045h-34.6509303v13.8231334h-13.8225022v96.9468651h-27.6450045Z"/><path d="m276.8281125,34.6509303V7.0059258h27.6450045v27.6450045h-27.6450045Zm0,159.243431V55.4793583h27.6450045v138.415003h-27.6450045Z"/><path d="m359.7631259,193.8943613v-13.8225022h-13.8225022v-13.8225022h-13.8225022v-83.124994h13.8225022v-13.8225022h13.8225022v-13.8225022h69.3018606v13.8225022h13.8225022v13.8225022h13.8225022v48.4740637h-96.9468651v20.828428h13.8225022v13.8225022h41.5621814v-13.8225022h41.5621814v13.8225022h-13.8225022v13.8225022h-13.8225022v13.8225022h-69.3018606Zm69.3018606-83.0296882v-13.9171769h-13.9171769v-13.8231334h-41.5621814v13.8231334h-13.8225022v13.9171769h69.3018606Z"/><path d="m484.3549955,193.8943613V0h27.6450045v193.8943613h-27.6450045Z"/></svg>