<?xml version="1.0" encoding="UTF-8"?><svg id="a" xmlns="http://www.w3.org/2000/svg" viewBox="0 0 1024 1024"><path d="M781.034692,510.804244c-1.221652,9.966878-7.335342,13.447826-14.548449,15.337397-17.482506,4.579961-35.037447,8.883962-52.570759,13.268648-24.973283,6.245283-49.955621,12.454247-74.929911,18.695304-40.507062,10.122917-62.614902,36.930942-70.126908,77.118079-15.292426,81.811724-30.67077,163.607452-46.011889,245.410021-.050504.269522-.054428.548501-.112879.81591-1.397409,6.388344-3.403582,13.430924-11.006635,13.364525-7.624985-.0664-9.645545-7.326187-10.863575-13.599941-4.591531-23.64831-8.890903-47.353362-13.337059-71.030043-11.470527-61.081977-22.12776-122.333173-34.762795-183.173597-7.326187-35.277592-29.418635-58.778817-65.158509-67.903226-42.714245-10.904923-85.465612-21.664271-128.19203-32.521909-2.644514-.672044-5.999805-.904443-7.647923-2.644917-3.331951-3.518172-7.878209-7.928411-7.886056-11.978584-.007847-4.053694,4.029046-9.952492,7.854165-11.786629,7.529913-3.610729,16.094151-5.151601,24.312205-7.225079,37.706308-9.513752,75.594611-18.348618,113.121841-28.518417,37.200464-10.081267,58.045605-36.105374,65.122693-73.089134,15.796158-82.548558,30.976007-165.215127,46.402339-247.834461.100605-.538792.058653-1.114205.219119-1.630311,1.809992-5.819319,3.469579-12.817533,10.72494-12.877444,7.735551-.063935,9.83579,6.914007,11.038527,13.279161,9.963257,52.724635,19.824298,105.468535,29.711195,158.207557,6.104334,32.562202,11.029674,65.401823,18.619548,97.613767,8.018856,34.033103,29.350827,57.394386,63.889472,66.462758,41.8428,10.986213,83.933392,21.02603,125.839674,31.776021,5.683703,1.458074,11.251911,4.136492,16.218399,7.283933,2.347627,1.487652,3.146133,5.420016,4.08126,7.180611Z" style="fill:#000; stroke-width:0px;"/></svg>